# xmcd
#
# Track frame offsets:
#	150
#	17381
#	38497
#	56200
#	77412
#	98940
#	120585
#	136319
#	162230
#	187511
#	203244
#	218217
#
# Disc length: 3145 seconds
# Revision: 0
# Processed by: cddbd v1.5.2PL0 Copyright (c) Steve Scherf et al.
# Submitted via: dBpowerAMP V12.0
#
DISCID=910c470c
DTITLE=Deb Ryder - Grit Grease and Tears
DYEAR=2016
DGENRE=Blues
TTITLE0=Ain't Gonna Be Easy
TTITLE1=Get A Little Steam Up
TTITLE2=Blink Of An Eye
TTITLE3=Grit Grease and Tears
TTITLE4=Sweet Maryanne
TTITLE5=Lord Knows I Do
TTITLE6=Panic Mode
TTITLE7=Just Her Nature
TTITLE8=New Mechanic (Patrick's Blues)
TTITLE9=Rivers Forgiveness
TTITLE10=Prisoner Of War
TTITLE11=Right Side Of The Grass
EXTD=
EXTT0=
EXTT1=
EXTT2=
EXTT3=
EXTT4=
EXTT5=
EXTT6=
EXTT7=
EXTT8=
EXTT9=
EXTT10=
EXTT11=
PLAYORDER=
